<svg xmlns="http://www.w3.org/2000/svg" xmlns:xlink="http://www.w3.org/1999/xlink" width="1180" height="277.1"><rect width="1180" height="277.1" rx="5" ry="5" class="a"/><svg y="0%" x="0%"><circle cx="20" cy="20" r="6" fill="#ff5f58"/><circle cx="40" cy="20" r="6" fill="#ffbd2e"/><circle cx="60" cy="20" r="6" fill="#18c132"/></svg><svg height="217.1" viewBox="0 0 114 21.71" width="1140" x="15" xmlns="http://www.w3.org/2000/svg" xmlns:xlink="http://www.w3.org/1999/xlink" y="50"><style>@keyframes o{0%{transform:translateX(0)}1.5%{transform:translateX(-114px)}1.7%{transform:translateX(-228px)}1.8%{transform:translateX(-342px)}1.9%{transform:translateX(-570px)}7.3%{transform:translateX(-912px)}8.2%{transform:translateX(-1026px)}10.5%{transform:translateX(-1140px)}11.9%{transform:translateX(-1368px)}13.6%{transform:translateX(-1596px)}17%{transform:translateX(-1824px)}17.1%{transform:translateX(-2052px)}40%{transform:translateX(-2166px)}40.1%{transform:translateX(-2280px)}41.2%{transform:translateX(-2508px)}42.4%{transform:translateX(-2736px)}43.6%{transform:translateX(-2964px)}44.8%{transform:translateX(-3192px)}46%{transform:translateX(-3420px)}47.1%{transform:translateX(-3648px)}48.3%{transform:translateX(-3876px)}49.5%{transform:translateX(-4104px)}50.6%{transform:translateX(-4332px)}51.9%{transform:translateX(-4560px)}53%{transform:translateX(-4788px)}54.2%{transform:translateX(-5016px)}55.3%{transform:translateX(-5244px)}56.5%{transform:translateX(-5472px)}57.7%{transform:translateX(-5700px)}58.8%{transform:translateX(-5814px)}58.9%{transform:translateX(-5928px)}60%{transform:translateX(-6156px)}61.2%{transform:translateX(-6384px)}62.3%{transform:translateX(-6612px)}63.5%{transform:translateX(-6840px)}64.7%{transform:translateX(-7068px)}65.9%{transform:translateX(-7296px)}67%{transform:translateX(-7524px)}67.6%{transform:translateX(-7980px)}67.7%{transform:translateX(-8094px)}68.3%{transform:translateX(-8550px)}to{transform:translateX(-8778px)}}.a{fill:#1c2b34}.f{fill:#1dc121}.g{fill:#686868;font-weight:700}.h{fill:#20c5c6}.i{fill:#c7c329}.j{fill:#fff}.q{fill:#fd6f6b}.r{fill:#555}</style><g font-size="1.67" font-family="Monaco,Consolas,Menlo,'Bitstream Vera Sans Mono','Powerline Symbols',monospace"><defs><symbol id="1"><text y="1.67" class="f">❯</text></symbol><symbol id="2"><text y="1.67" class="f">❯</text><text x="2.004" y="1.67" class="g">node</text><text x="7.014" y="1.67" class="h">cli.js</text><text x="14.028" y="1.67" class="h">loading-screen</text><text x="29.058" y="1.67" class="h">poi</text><text x="33.066" y="1.67" class="h">vuepress@next</text></symbol><symbol id="3"><text x="2.004" y="1.67" class="i">⠙</text><text x="4.008" y="1.67" class="j">loading-screen</text></symbol><symbol id="4"><text x="2.004" y="1.67" class="i">⠙</text><text x="4.008" y="1.67" class="j">poi</text></symbol><symbol id="5"><text x="2.004" y="1.67" class="i">⠙</text><text x="4.008" y="1.67" class="j">vuepress@next</text></symbol><symbol id="6"><text x="2.004" y="1.67" class="i">⠹</text><text x="4.008" y="1.67" class="j">loading-screen</text></symbol><symbol id="7"><text x="2.004" y="1.67" class="i">⠹</text><text x="4.008" y="1.67" class="j">poi</text></symbol><symbol id="8"><text x="2.004" y="1.67" class="i">⠹</text><text x="4.008" y="1.67" class="j">vuepress@next</text></symbol><symbol id="9"><text x="2.004" y="1.67" class="i">⠸</text><text x="4.008" y="1.67" class="j">loading-screen</text></symbol><symbol id="10"><text x="2.004" y="1.67" class="i">⠸</text><text x="4.008" y="1.67" class="j">poi</text></symbol><symbol id="11"><text x="2.004" y="1.67" class="i">⠸</text><text x="4.008" y="1.67" class="j">vuepress@next</text></symbol><symbol id="12"><text x="2.004" y="1.67" class="i">⠼</text><text x="4.008" y="1.67" class="j">loading-screen</text></symbol><symbol id="13"><text x="2.004" y="1.67" class="i">⠼</text><text x="4.008" y="1.67" class="j">poi</text></symbol><symbol id="14"><text x="2.004" y="1.67" class="i">⠼</text><text x="4.008" y="1.67" class="j">vuepress@next</text></symbol><symbol id="15"><text x="2.004" y="1.67" class="i">⠴</text><text x="4.008" y="1.67" class="j">loading-screen</text></symbol><symbol id="16"><text x="2.004" y="1.67" class="i">⠴</text><text x="4.008" y="1.67" class="j">poi</text></symbol><symbol id="17"><text x="2.004" y="1.67" class="i">⠴</text><text x="4.008" y="1.67" class="j">vuepress@next</text></symbol><symbol id="18"><text x="2.004" y="1.67" class="i">⠦</text><text x="4.008" y="1.67" class="j">loading-screen</text></symbol><symbol id="19"><text x="2.004" y="1.67" class="i">⠦</text><text x="4.008" y="1.67" class="j">poi</text></symbol><symbol id="20"><text x="2.004" y="1.67" class="i">⠦</text><text x="4.008" y="1.67" class="j">vuepress@next</text></symbol><symbol id="21"><text x="2.004" y="1.67" class="i">⠧</text><text x="4.008" y="1.67" class="j">loading-screen</text></symbol><symbol id="22"><text x="2.004" y="1.67" class="i">⠧</text><text x="4.008" y="1.67" class="j">poi</text></symbol><symbol id="23"><text x="2.004" y="1.67" class="i">⠧</text><text x="4.008" y="1.67" class="j">vuepress@next</text></symbol><symbol id="24"><text x="2.004" y="1.67" class="i">⠇</text><text x="4.008" y="1.67" class="j">loading-screen</text></symbol><symbol id="25"><text x="2.004" y="1.67" class="i">⠇</text><text x="4.008" y="1.67" class="j">poi</text></symbol><symbol id="26"><text x="2.004" y="1.67" class="i">⠇</text><text x="4.008" y="1.67" class="j">vuepress@next</text></symbol><symbol id="27"><text x="2.004" y="1.67" class="i">⠏</text><text x="4.008" y="1.67" class="j">loading-screen</text></symbol><symbol id="28"><text x="2.004" y="1.67" class="i">⠏</text><text x="4.008" y="1.67" class="j">poi</text></symbol><symbol id="29"><text x="2.004" y="1.67" class="i">⠏</text><text x="4.008" y="1.67" class="j">vuepress@next</text></symbol><symbol id="30"><text x="2.004" y="1.67" class="i">⠋</text><text x="4.008" y="1.67" class="j">loading-screen</text></symbol><symbol id="31"><text x="2.004" y="1.67" class="i">⠋</text><text x="4.008" y="1.67" class="j">poi</text></symbol><symbol id="32"><text x="2.004" y="1.67" class="i">⠋</text><text x="4.008" y="1.67" class="j">vuepress@next</text></symbol><symbol id="33"><text x="2.004" y="1.67" class="f">✔</text><text x="4.008" y="1.67" class="j">loading-screen</text><text x="19.038" y="1.67" class="f">1.3.0</text></symbol><symbol id="34"><text x="2.004" y="1.67" class="f">✔</text><text x="4.008" y="1.67" class="j">vuepress@next</text><text x="19.038" y="1.67" class="f">1.0.0-rc.1</text></symbol><symbol id="35"><text x="2.004" y="1.67" class="f">✔</text><text x="4.008" y="1.67" class="j">poi</text><text x="19.038" y="1.67" class="f">12.6.10</text></symbol><symbol id="36"><text y="1.67" fill="#0a2fc4">~/dev/latest-version</text><text x="21.042" y="1.67" fill="#93a1a1">master*</text><text x="29.058" y="1.67" class="i">0.000051d</text><text x="39.078" y="1.67" class="i">0.001219h</text><text x="49.098" y="1.67" class="i">0.073117m</text></symbol><symbol id="a"><path fill="transparent" d="M0 0h114v11H0z"/></symbol><symbol id="b"><path fill="#f81ce5" d="M0 0h1.102v2.171H0z"/></symbol></defs><path class="a" d="M0 0h114v21.71H0z"/><g style="animation-duration:8.663545s;animation-iteration-count:infinite;animation-name:o;animation-timing-function:steps(1,end)"><svg width="8892"><svg><use xlink:href="#a"/><use xlink:href="#b" x="-.004"/></svg><svg x="114"><use xlink:href="#a"/><use xlink:href="#b" x="-.004"/></svg><svg x="228"><use xlink:href="#a"/><use xlink:href="#b" x="-.004"/></svg><svg x="342"><use xlink:href="#a"/><use xlink:href="#b" x="-.004"/></svg><svg x="456"><use xlink:href="#a"/><use xlink:href="#b" x="-.004"/></svg><svg x="570"><use xlink:href="#a"/><use xlink:href="#b" x="1.996"/><use xlink:href="#1"/></svg><svg x="684"><use xlink:href="#a"/><use xlink:href="#b" x="2.996"/><text y="1.67" class="f">❯</text><text x="2.004" y="1.67" class="j">n</text></svg><svg x="798"><use xlink:href="#a"/><use xlink:href="#b" x="2.996"/><text y="1.67" class="f">❯</text><text x="2.004" y="1.67" class="q">n</text></svg><svg x="912"><use xlink:href="#a"/><use xlink:href="#b" x="2.996"/><text y="1.67" class="f">❯</text><text x="2.004" y="1.67" class="q">n</text><text x="3.006" y="1.67" class="r">ode</text><text x="7.014" y="1.67" class="r">cli.js</text><text x="14.028" y="1.67" class="r">loading-screen</text><text x="29.058" y="1.67" class="r">poi</text><text x="33.066" y="1.67" class="r">vuepress@next</text></svg><svg x="1026"><use xlink:href="#a"/><use xlink:href="#b" x="3.996"/><text y="1.67" class="f">❯</text><text x="2.004" y="1.67" class="q">no</text><text x="4.008" y="1.67" class="r">de</text><text x="7.014" y="1.67" class="r">cli.js</text><text x="14.028" y="1.67" class="r">loading-screen</text><text x="29.058" y="1.67" class="r">poi</text><text x="33.066" y="1.67" class="r">vuepress@next</text></svg><svg x="1140"><use xlink:href="#a"/><use xlink:href="#b" x="4.996"/><text y="1.67" class="f">❯</text><text x="2.004" y="1.67" class="q">nod</text><text x="5.01" y="1.67" class="r">e</text><text x="7.014" y="1.67" class="r">cli.js</text><text x="14.028" y="1.67" class="r">loading-screen</text><text x="29.058" y="1.67" class="r">poi</text><text x="33.066" y="1.67" class="r">vuepress@next</text></svg><svg x="1254"><use xlink:href="#a"/><use xlink:href="#b" x="5.996"/><text y="1.67" class="f">❯</text><text x="2.004" y="1.67" class="q">node</text><text x="7.014" y="1.67" class="r">cli.js</text><text x="14.028" y="1.67" class="r">loading-screen</text><text x="29.058" y="1.67" class="r">poi</text><text x="33.066" y="1.67" class="r">vuepress@next</text></svg><svg x="1368"><use xlink:href="#a"/><use xlink:href="#b" x="5.996"/><text y="1.67" class="f">❯</text><text x="2.004" y="1.67" class="g">node</text><text x="7.014" y="1.67" class="r">cli.js</text><text x="14.028" y="1.67" class="r">loading-screen</text><text x="29.058" y="1.67" class="r">poi</text><text x="33.066" y="1.67" class="r">vuepress@next</text></svg><svg x="1482"><use xlink:href="#a"/><use xlink:href="#b" x="45.996"/><text y="1.67" class="f">❯</text><text x="2.004" y="1.67" class="g">node</text><text x="7.014" y="1.67" class="g">cli.js</text><text x="14.028" y="1.67" class="g">loading-screen</text><text x="29.058" y="1.67" class="g">poi</text><text x="33.066" y="1.67" class="g">vuepress@next</text></svg><svg x="1596"><use xlink:href="#a"/><use xlink:href="#b" x="45.996"/><use xlink:href="#2"/></svg><svg x="1710"><use xlink:href="#a"/><use xlink:href="#b" x="-.004" y="2.146"/><use xlink:href="#2"/></svg><svg x="1824"><use xlink:href="#a"/><use xlink:href="#b" x="-.004" y="2.146"/><use xlink:href="#2"/></svg><svg x="1938"><use xlink:href="#a"/><use xlink:href="#b" x="-.004" y="2.146"/><use xlink:href="#2"/></svg><svg x="2052"><use xlink:href="#a"/><use xlink:href="#b" x="-.004" y="2.146"/><use xlink:href="#2"/></svg><svg x="2166"><use xlink:href="#a"/><use xlink:href="#2"/></svg><svg x="2280"><use xlink:href="#a"/><use xlink:href="#2"/><use xlink:href="#3" y="2.171"/><use xlink:href="#4" y="4.342"/><use xlink:href="#5" y="6.513"/></svg><svg x="2394"><use xlink:href="#a"/><use xlink:href="#2"/><use xlink:href="#3" y="2.171"/><use xlink:href="#4" y="4.342"/><use xlink:href="#5" y="6.513"/></svg><svg x="2508"><use xlink:href="#a"/><use xlink:href="#2"/><use xlink:href="#6" y="2.171"/><use xlink:href="#7" y="4.342"/><use xlink:href="#8" y="6.513"/></svg><svg x="2622"><use xlink:href="#a"/><use xlink:href="#2"/><use xlink:href="#6" y="2.171"/><use xlink:href="#7" y="4.342"/><use xlink:href="#8" y="6.513"/></svg><svg x="2736"><use xlink:href="#a"/><use xlink:href="#2"/><use xlink:href="#9" y="2.171"/><use xlink:href="#10" y="4.342"/><use xlink:href="#11" y="6.513"/></svg><svg x="2850"><use xlink:href="#a"/><use xlink:href="#2"/><use xlink:href="#9" y="2.171"/><use xlink:href="#10" y="4.342"/><use xlink:href="#11" y="6.513"/></svg><svg x="2964"><use xlink:href="#a"/><use xlink:href="#2"/><use xlink:href="#12" y="2.171"/><use xlink:href="#13" y="4.342"/><use xlink:href="#14" y="6.513"/></svg><svg x="3078"><use xlink:href="#a"/><use xlink:href="#2"/><use xlink:href="#12" y="2.171"/><use xlink:href="#13" y="4.342"/><use xlink:href="#14" y="6.513"/></svg><svg x="3192"><use xlink:href="#a"/><use xlink:href="#2"/><use xlink:href="#15" y="2.171"/><use xlink:href="#16" y="4.342"/><use xlink:href="#17" y="6.513"/></svg><svg x="3306"><use xlink:href="#a"/><use xlink:href="#2"/><use xlink:href="#15" y="2.171"/><use xlink:href="#16" y="4.342"/><use xlink:href="#17" y="6.513"/></svg><svg x="3420"><use xlink:href="#a"/><use xlink:href="#2"/><use xlink:href="#18" y="2.171"/><use xlink:href="#19" y="4.342"/><use xlink:href="#20" y="6.513"/></svg><svg x="3534"><use xlink:href="#a"/><use xlink:href="#2"/><use xlink:href="#18" y="2.171"/><use xlink:href="#19" y="4.342"/><use xlink:href="#20" y="6.513"/></svg><svg x="3648"><use xlink:href="#a"/><use xlink:href="#2"/><use xlink:href="#21" y="2.171"/><use xlink:href="#22" y="4.342"/><use xlink:href="#23" y="6.513"/></svg><svg x="3762"><use xlink:href="#a"/><use xlink:href="#2"/><use xlink:href="#21" y="2.171"/><use xlink:href="#22" y="4.342"/><use xlink:href="#23" y="6.513"/></svg><svg x="3876"><use xlink:href="#a"/><use xlink:href="#2"/><use xlink:href="#24" y="2.171"/><use xlink:href="#25" y="4.342"/><use xlink:href="#26" y="6.513"/></svg><svg x="3990"><use xlink:href="#a"/><use xlink:href="#2"/><use xlink:href="#24" y="2.171"/><use xlink:href="#25" y="4.342"/><use xlink:href="#26" y="6.513"/></svg><svg x="4104"><use xlink:href="#a"/><use xlink:href="#2"/><use xlink:href="#27" y="2.171"/><use xlink:href="#28" y="4.342"/><use xlink:href="#29" y="6.513"/></svg><svg x="4218"><use xlink:href="#a"/><use xlink:href="#2"/><use xlink:href="#27" y="2.171"/><use xlink:href="#28" y="4.342"/><use xlink:href="#29" y="6.513"/></svg><svg x="4332"><use xlink:href="#a"/><use xlink:href="#2"/><use xlink:href="#30" y="2.171"/><use xlink:href="#31" y="4.342"/><use xlink:href="#32" y="6.513"/></svg><svg x="4446"><use xlink:href="#a"/><use xlink:href="#2"/><use xlink:href="#30" y="2.171"/><use xlink:href="#31" y="4.342"/><use xlink:href="#32" y="6.513"/></svg><svg x="4560"><use xlink:href="#a"/><use xlink:href="#2"/><use xlink:href="#3" y="2.171"/><use xlink:href="#4" y="4.342"/><use xlink:href="#5" y="6.513"/></svg><svg x="4674"><use xlink:href="#a"/><use xlink:href="#2"/><use xlink:href="#3" y="2.171"/><use xlink:href="#4" y="4.342"/><use xlink:href="#5" y="6.513"/></svg><svg x="4788"><use xlink:href="#a"/><use xlink:href="#2"/><use xlink:href="#6" y="2.171"/><use xlink:href="#7" y="4.342"/><use xlink:href="#8" y="6.513"/></svg><svg x="4902"><use xlink:href="#a"/><use xlink:href="#2"/><use xlink:href="#6" y="2.171"/><use xlink:href="#7" y="4.342"/><use xlink:href="#8" y="6.513"/></svg><svg x="5016"><use xlink:href="#a"/><use xlink:href="#2"/><use xlink:href="#9" y="2.171"/><use xlink:href="#10" y="4.342"/><use xlink:href="#11" y="6.513"/></svg><svg x="5130"><use xlink:href="#a"/><use xlink:href="#2"/><use xlink:href="#9" y="2.171"/><use xlink:href="#10" y="4.342"/><use xlink:href="#11" y="6.513"/></svg><svg x="5244"><use xlink:href="#a"/><use xlink:href="#2"/><use xlink:href="#12" y="2.171"/><use xlink:href="#13" y="4.342"/><use xlink:href="#14" y="6.513"/></svg><svg x="5358"><use xlink:href="#a"/><use xlink:href="#2"/><use xlink:href="#12" y="2.171"/><use xlink:href="#13" y="4.342"/><use xlink:href="#14" y="6.513"/></svg><svg x="5472"><use xlink:href="#a"/><use xlink:href="#2"/><use xlink:href="#15" y="2.171"/><use xlink:href="#16" y="4.342"/><use xlink:href="#17" y="6.513"/></svg><svg x="5586"><use xlink:href="#a"/><use xlink:href="#2"/><use xlink:href="#15" y="2.171"/><use xlink:href="#16" y="4.342"/><use xlink:href="#17" y="6.513"/></svg><svg x="5700"><use xlink:href="#a"/><use xlink:href="#2"/><use xlink:href="#18" y="2.171"/><use xlink:href="#19" y="4.342"/><use xlink:href="#20" y="6.513"/></svg><svg x="5814"><use xlink:href="#a"/><use xlink:href="#2"/><use xlink:href="#18" y="2.171"/><use xlink:href="#19" y="4.342"/><use xlink:href="#20" y="6.513"/></svg><svg x="5928"><use xlink:href="#a"/><use xlink:href="#2"/><use xlink:href="#33" y="2.171"/><use xlink:href="#22" y="4.342"/><use xlink:href="#23" y="6.513"/></svg><svg x="6042"><use xlink:href="#a"/><use xlink:href="#2"/><use xlink:href="#33" y="2.171"/><use xlink:href="#22" y="4.342"/><use xlink:href="#23" y="6.513"/></svg><svg x="6156"><use xlink:href="#a"/><use xlink:href="#2"/><use xlink:href="#33" y="2.171"/><use xlink:href="#25" y="4.342"/><use xlink:href="#26" y="6.513"/></svg><svg x="6270"><use xlink:href="#a"/><use xlink:href="#2"/><use xlink:href="#33" y="2.171"/><use xlink:href="#25" y="4.342"/><use xlink:href="#26" y="6.513"/></svg><svg x="6384"><use xlink:href="#a"/><use xlink:href="#2"/><use xlink:href="#33" y="2.171"/><use xlink:href="#28" y="4.342"/><use xlink:href="#29" y="6.513"/></svg><svg x="6498"><use xlink:href="#a"/><use xlink:href="#2"/><use xlink:href="#33" y="2.171"/><use xlink:href="#28" y="4.342"/><use xlink:href="#29" y="6.513"/></svg><svg x="6612"><use xlink:href="#a"/><use xlink:href="#2"/><use xlink:href="#33" y="2.171"/><use xlink:href="#31" y="4.342"/><use xlink:href="#32" y="6.513"/></svg><svg x="6726"><use xlink:href="#a"/><use xlink:href="#2"/><use xlink:href="#33" y="2.171"/><use xlink:href="#31" y="4.342"/><use xlink:href="#32" y="6.513"/></svg><svg x="6840"><use xlink:href="#a"/><use xlink:href="#2"/><use xlink:href="#33" y="2.171"/><use xlink:href="#4" y="4.342"/><use xlink:href="#5" y="6.513"/></svg><svg x="6954"><use xlink:href="#a"/><use xlink:href="#2"/><use xlink:href="#33" y="2.171"/><use xlink:href="#4" y="4.342"/><use xlink:href="#5" y="6.513"/></svg><svg x="7068"><use xlink:href="#a"/><use xlink:href="#2"/><use xlink:href="#33" y="2.171"/><use xlink:href="#7" y="4.342"/><use xlink:href="#8" y="6.513"/></svg><svg x="7182"><use xlink:href="#a"/><use xlink:href="#2"/><use xlink:href="#33" y="2.171"/><use xlink:href="#7" y="4.342"/><use xlink:href="#8" y="6.513"/></svg><svg x="7296"><use xlink:href="#a"/><use xlink:href="#2"/><use xlink:href="#33" y="2.171"/><use xlink:href="#10" y="4.342"/><use xlink:href="#34" y="6.513"/></svg><svg x="7410"><use xlink:href="#a"/><use xlink:href="#2"/><use xlink:href="#33" y="2.171"/><use xlink:href="#10" y="4.342"/><use xlink:href="#34" y="6.513"/></svg><svg x="7524"><use xlink:href="#a"/><use xlink:href="#2"/><use xlink:href="#33" y="2.171"/><use xlink:href="#13" y="4.342"/><use xlink:href="#34" y="6.513"/></svg><svg x="7638"><use xlink:href="#a"/><use xlink:href="#2"/><use xlink:href="#33" y="2.171"/><use xlink:href="#13" y="4.342"/><use xlink:href="#34" y="6.513"/></svg><svg x="7752"><use xlink:href="#a"/><use xlink:href="#2"/><use xlink:href="#33" y="2.171"/><use xlink:href="#35" y="4.342"/><use xlink:href="#34" y="6.513"/></svg><svg x="7866"><use xlink:href="#a"/><use xlink:href="#b" x="-.004" y="8.659"/><use xlink:href="#2"/><use xlink:href="#33" y="2.171"/><use xlink:href="#35" y="4.342"/><use xlink:href="#34" y="6.513"/></svg><svg x="7980"><use xlink:href="#a"/><use xlink:href="#b" x="-.004" y="8.659"/><use xlink:href="#2"/><use xlink:href="#33" y="2.171"/><use xlink:href="#35" y="4.342"/><use xlink:href="#34" y="6.513"/></svg><svg x="8094"><use xlink:href="#a"/><use xlink:href="#b" x="-.004" y="8.659"/><use xlink:href="#2"/><use xlink:href="#33" y="2.171"/><use xlink:href="#35" y="4.342"/><use xlink:href="#34" y="6.513"/></svg><svg x="8208"><use xlink:href="#a"/><use xlink:href="#b" x="-.004" y="13.001"/><use xlink:href="#2"/><use xlink:href="#33" y="2.171"/><use xlink:href="#35" y="4.342"/><use xlink:href="#34" y="6.513"/><use xlink:href="#36" y="10.855"/></svg><svg x="8322"><use xlink:href="#a"/><use xlink:href="#b" x="-.004" y="13.001"/><use xlink:href="#2"/><use xlink:href="#33" y="2.171"/><use xlink:href="#35" y="4.342"/><use xlink:href="#34" y="6.513"/><use xlink:href="#36" y="10.855"/></svg><svg x="8436"><use xlink:href="#a"/><use xlink:href="#b" x="-.004" y="13.001"/><use xlink:href="#2"/><use xlink:href="#33" y="2.171"/><use xlink:href="#35" y="4.342"/><use xlink:href="#34" y="6.513"/><use xlink:href="#36" y="10.855"/></svg><svg x="8550"><use xlink:href="#a"/><use xlink:href="#b" x="1.996" y="13.001"/><use xlink:href="#2"/><use xlink:href="#33" y="2.171"/><use xlink:href="#35" y="4.342"/><use xlink:href="#34" y="6.513"/><use xlink:href="#36" y="10.855"/><use xlink:href="#1" y="13.026"/></svg><svg x="8664"><use xlink:href="#a"/><use xlink:href="#b" x="-.004" y="15.172"/><use xlink:href="#2"/><use xlink:href="#33" y="2.171"/><use xlink:href="#35" y="4.342"/><use xlink:href="#34" y="6.513"/><use xlink:href="#36" y="10.855"/><use xlink:href="#1" y="13.026"/></svg><svg x="8778"><use xlink:href="#a"/><use xlink:href="#b" x="-.004" y="15.172"/><use xlink:href="#2"/><use xlink:href="#33" y="2.171"/><use xlink:href="#35" y="4.342"/><use xlink:href="#34" y="6.513"/><use xlink:href="#36" y="10.855"/><use xlink:href="#1" y="13.026"/></svg></svg></g></g></svg></svg>