<svg xmlns="http://www.w3.org/2000/svg" xmlns:xlink="http://www.w3.org/1999/xlink" width="800" height="646.17"><rect width="800" height="646.17" rx="5" ry="5" class="a"/><svg y="0%" x="0%"><circle cx="20" cy="20" r="6" fill="#ff5f58"/><circle cx="40" cy="20" r="6" fill="#ffbd2e"/><circle cx="60" cy="20" r="6" fill="#18c132"/></svg><svg height="586.17" viewBox="0 0 76 58.617" width="760" x="15" xmlns="http://www.w3.org/2000/svg" xmlns:xlink="http://www.w3.org/1999/xlink" y="50"><style>@keyframes o{0%{transform:translateX(0)}1.9%{transform:translateX(-76px)}2.2%{transform:translateX(-152px)}2.5%{transform:translateX(-380px)}9.3%{transform:translateX(-608px)}10.5%{transform:translateX(-684px)}11.7%{transform:translateX(-760px)}13.3%{transform:translateX(-912px)}17.7%{transform:translateX(-1064px)}21.3%{transform:translateX(-1368px)}50.9%{transform:translateX(-1444px)}51%{transform:translateX(-1520px)}52.4%{transform:translateX(-1672px)}53.8%{transform:translateX(-1824px)}55.3%{transform:translateX(-1976px)}56.7%{transform:translateX(-2128px)}58.2%{transform:translateX(-2280px)}59.6%{transform:translateX(-2432px)}61.1%{transform:translateX(-2584px)}62.5%{transform:translateX(-2736px)}63.9%{transform:translateX(-2888px)}65.4%{transform:translateX(-3040px)}66.9%{transform:translateX(-3192px)}68.3%{transform:translateX(-3344px)}69.8%{transform:translateX(-3496px)}71.2%{transform:translateX(-3572px)}71.3%{transform:translateX(-3648px)}72.7%{transform:translateX(-3800px)}74.2%{transform:translateX(-3952px)}75.6%{transform:translateX(-4104px)}77%{transform:translateX(-4256px)}78.5%{transform:translateX(-4408px)}80%{transform:translateX(-4560px)}81.5%{transform:translateX(-4712px)}83%{transform:translateX(-4864px)}84.5%{transform:translateX(-5016px)}86%{transform:translateX(-5168px)}87.5%{transform:translateX(-5320px)}88.9%{transform:translateX(-5396px)}89%{transform:translateX(-5472px)}89.2%{transform:translateX(-5776px)}89.4%{transform:translateX(-5852px)}90.2%{transform:translateX(-6156px)}to{transform:translateX(-6308px)}}.a{fill:#1c2b34}.f{fill:#1dc121}.g{fill:#686868;font-weight:700}.h{fill:#20c5c6}.i{fill:#c7c329}.j{fill:#fff}.q{fill:#fd6f6b}.r{fill:#555}</style><g font-size="1.67" font-family="Monaco,Consolas,Menlo,'Bitstream Vera Sans Mono','Powerline Symbols',monospace"><defs><symbol id="1"><text y="1.67" class="f">❯</text></symbol><symbol id="2"><text y="1.67" class="f">❯</text><text x="2.004" y="1.67" class="g">node</text><text x="7.014" y="1.67" class="h">cli.js</text><text x="14.028" y="1.67" class="h">loading-screen</text><text x="29.058" y="1.67" class="h">poi</text></symbol><symbol id="3"><text x="2.004" y="1.67" class="i">⠙</text><text x="4.008" y="1.67" class="j">loading-screen</text></symbol><symbol id="4"><text x="2.004" y="1.67" class="i">⠙</text><text x="4.008" y="1.67" class="j">poi</text></symbol><symbol id="5"><text x="2.004" y="1.67" class="i">⠹</text><text x="4.008" y="1.67" class="j">loading-screen</text></symbol><symbol id="6"><text x="2.004" y="1.67" class="i">⠹</text><text x="4.008" y="1.67" class="j">poi</text></symbol><symbol id="7"><text x="2.004" y="1.67" class="i">⠸</text><text x="4.008" y="1.67" class="j">loading-screen</text></symbol><symbol id="8"><text x="2.004" y="1.67" class="i">⠸</text><text x="4.008" y="1.67" class="j">poi</text></symbol><symbol id="9"><text x="2.004" y="1.67" class="i">⠼</text><text x="4.008" y="1.67" class="j">loading-screen</text></symbol><symbol id="10"><text x="2.004" y="1.67" class="i">⠼</text><text x="4.008" y="1.67" class="j">poi</text></symbol><symbol id="11"><text x="2.004" y="1.67" class="i">⠴</text><text x="4.008" y="1.67" class="j">loading-screen</text></symbol><symbol id="12"><text x="2.004" y="1.67" class="i">⠴</text><text x="4.008" y="1.67" class="j">poi</text></symbol><symbol id="13"><text x="2.004" y="1.67" class="i">⠦</text><text x="4.008" y="1.67" class="j">loading-screen</text></symbol><symbol id="14"><text x="2.004" y="1.67" class="i">⠦</text><text x="4.008" y="1.67" class="j">poi</text></symbol><symbol id="15"><text x="2.004" y="1.67" class="i">⠧</text><text x="4.008" y="1.67" class="j">loading-screen</text></symbol><symbol id="16"><text x="2.004" y="1.67" class="i">⠧</text><text x="4.008" y="1.67" class="j">poi</text></symbol><symbol id="17"><text x="2.004" y="1.67" class="i">⠇</text><text x="4.008" y="1.67" class="j">loading-screen</text></symbol><symbol id="18"><text x="2.004" y="1.67" class="i">⠇</text><text x="4.008" y="1.67" class="j">poi</text></symbol><symbol id="19"><text x="2.004" y="1.67" class="i">⠏</text><text x="4.008" y="1.67" class="j">loading-screen</text></symbol><symbol id="20"><text x="2.004" y="1.67" class="i">⠏</text><text x="4.008" y="1.67" class="j">poi</text></symbol><symbol id="21"><text x="2.004" y="1.67" class="i">⠋</text><text x="4.008" y="1.67" class="j">loading-screen</text></symbol><symbol id="22"><text x="2.004" y="1.67" class="i">⠋</text><text x="4.008" y="1.67" class="j">poi</text></symbol><symbol id="23"><text x="2.004" y="1.67" class="f">✔</text><text x="4.008" y="1.67" class="j">poi</text><text x="8.016" y="1.67" class="f">12.6.10</text></symbol><symbol id="24"><text x="2.004" y="1.67" class="f">✔</text><text x="4.008" y="1.67" class="j">loading-screen</text><text x="19.038" y="1.67" class="f">1.3.0</text></symbol><symbol id="25"><text y="1.67" fill="#0a2fc4">~/dev/latest-version</text><text x="21.042" y="1.67" fill="#93a1a1">master*</text><text x="29.058" y="1.67" class="h">⇡</text><text x="31.062" y="1.67" class="i">0.000055d</text><text x="41.082" y="1.67" class="i">0.001327h</text><text x="51.102" y="1.67" class="i">0.0796m</text></symbol><symbol id="a"><path fill="transparent" d="M0 0h76v27H0z"/></symbol><symbol id="b"><path fill="#f81ce5" d="M0 0h1.102v2.171H0z"/></symbol></defs><path class="a" d="M0 0h76v58.617H0z"/><g style="animation-duration:7.017861s;animation-iteration-count:infinite;animation-name:o;animation-timing-function:steps(1,end)"><svg width="6384"><svg><use xlink:href="#a"/><use xlink:href="#b" x="-.004"/></svg><svg x="76"><use xlink:href="#a"/><use xlink:href="#b" x="-.004"/></svg><svg x="152"><use xlink:href="#a"/><use xlink:href="#b" x="-.004"/></svg><svg x="228"><use xlink:href="#a"/><use xlink:href="#b" x="-.004"/></svg><svg x="304"><use xlink:href="#a"/><use xlink:href="#b" x="-.004"/></svg><svg x="380"><use xlink:href="#a"/><use xlink:href="#b" x="1.996"/><use xlink:href="#1"/></svg><svg x="456"><use xlink:href="#a"/><use xlink:href="#b" x="2.996"/><text y="1.67" class="f">❯</text><text x="2.004" y="1.67" class="j">n</text></svg><svg x="532"><use xlink:href="#a"/><use xlink:href="#b" x="2.996"/><text y="1.67" class="f">❯</text><text x="2.004" y="1.67" class="q">n</text></svg><svg x="608"><use xlink:href="#a"/><use xlink:href="#b" x="2.996"/><text y="1.67" class="f">❯</text><text x="2.004" y="1.67" class="q">n</text><text x="3.006" y="1.67" class="r">ode</text><text x="7.014" y="1.67" class="r">cli.js</text><text x="14.028" y="1.67" class="r">loading-screen</text><text x="29.058" y="1.67" class="r">poi</text></svg><svg x="684"><use xlink:href="#a"/><use xlink:href="#b" x="3.996"/><text y="1.67" class="f">❯</text><text x="2.004" y="1.67" class="q">no</text><text x="4.008" y="1.67" class="r">de</text><text x="7.014" y="1.67" class="r">cli.js</text><text x="14.028" y="1.67" class="r">loading-screen</text><text x="29.058" y="1.67" class="r">poi</text></svg><svg x="760"><use xlink:href="#a"/><use xlink:href="#b" x="4.996"/><text y="1.67" class="f">❯</text><text x="2.004" y="1.67" class="q">nod</text><text x="5.01" y="1.67" class="r">e</text><text x="7.014" y="1.67" class="r">cli.js</text><text x="14.028" y="1.67" class="r">loading-screen</text><text x="29.058" y="1.67" class="r">poi</text></svg><svg x="836"><use xlink:href="#a"/><use xlink:href="#b" x="5.996"/><text y="1.67" class="f">❯</text><text x="2.004" y="1.67" class="q">node</text><text x="7.014" y="1.67" class="r">cli.js</text><text x="14.028" y="1.67" class="r">loading-screen</text><text x="29.058" y="1.67" class="r">poi</text></svg><svg x="912"><use xlink:href="#a"/><use xlink:href="#b" x="5.996"/><text y="1.67" class="f">❯</text><text x="2.004" y="1.67" class="g">node</text><text x="7.014" y="1.67" class="r">cli.js</text><text x="14.028" y="1.67" class="r">loading-screen</text><text x="29.058" y="1.67" class="r">poi</text></svg><svg x="988"><use xlink:href="#a"/><use xlink:href="#b" x="31.996"/><text y="1.67" class="f">❯</text><text x="2.004" y="1.67" class="g">node</text><text x="7.014" y="1.67" class="g">cli.js</text><text x="14.028" y="1.67" class="g">loading-screen</text><text x="29.058" y="1.67" class="g">poi</text></svg><svg x="1064"><use xlink:href="#a"/><use xlink:href="#b" x="31.996"/><use xlink:href="#2"/></svg><svg x="1140"><use xlink:href="#a"/><use xlink:href="#b" x="-.004" y="2.146"/><use xlink:href="#2"/></svg><svg x="1216"><use xlink:href="#a"/><use xlink:href="#b" x="-.004" y="2.146"/><use xlink:href="#2"/></svg><svg x="1292"><use xlink:href="#a"/><use xlink:href="#b" x="-.004" y="2.146"/><use xlink:href="#2"/></svg><svg x="1368"><use xlink:href="#a"/><use xlink:href="#b" x="-.004" y="2.146"/><use xlink:href="#2"/></svg><svg x="1444"><use xlink:href="#a"/><use xlink:href="#2"/></svg><svg x="1520"><use xlink:href="#a"/><use xlink:href="#2"/><use xlink:href="#3" y="2.171"/><use xlink:href="#4" y="4.342"/></svg><svg x="1596"><use xlink:href="#a"/><use xlink:href="#2"/><use xlink:href="#3" y="2.171"/><use xlink:href="#4" y="4.342"/></svg><svg x="1672"><use xlink:href="#a"/><use xlink:href="#2"/><use xlink:href="#5" y="2.171"/><use xlink:href="#6" y="4.342"/></svg><svg x="1748"><use xlink:href="#a"/><use xlink:href="#2"/><use xlink:href="#5" y="2.171"/><use xlink:href="#6" y="4.342"/></svg><svg x="1824"><use xlink:href="#a"/><use xlink:href="#2"/><use xlink:href="#7" y="2.171"/><use xlink:href="#8" y="4.342"/></svg><svg x="1900"><use xlink:href="#a"/><use xlink:href="#2"/><use xlink:href="#7" y="2.171"/><use xlink:href="#8" y="4.342"/></svg><svg x="1976"><use xlink:href="#a"/><use xlink:href="#2"/><use xlink:href="#9" y="2.171"/><use xlink:href="#10" y="4.342"/></svg><svg x="2052"><use xlink:href="#a"/><use xlink:href="#2"/><use xlink:href="#9" y="2.171"/><use xlink:href="#10" y="4.342"/></svg><svg x="2128"><use xlink:href="#a"/><use xlink:href="#2"/><use xlink:href="#11" y="2.171"/><use xlink:href="#12" y="4.342"/></svg><svg x="2204"><use xlink:href="#a"/><use xlink:href="#2"/><use xlink:href="#11" y="2.171"/><use xlink:href="#12" y="4.342"/></svg><svg x="2280"><use xlink:href="#a"/><use xlink:href="#2"/><use xlink:href="#13" y="2.171"/><use xlink:href="#14" y="4.342"/></svg><svg x="2356"><use xlink:href="#a"/><use xlink:href="#2"/><use xlink:href="#13" y="2.171"/><use xlink:href="#14" y="4.342"/></svg><svg x="2432"><use xlink:href="#a"/><use xlink:href="#2"/><use xlink:href="#15" y="2.171"/><use xlink:href="#16" y="4.342"/></svg><svg x="2508"><use xlink:href="#a"/><use xlink:href="#2"/><use xlink:href="#15" y="2.171"/><use xlink:href="#16" y="4.342"/></svg><svg x="2584"><use xlink:href="#a"/><use xlink:href="#2"/><use xlink:href="#17" y="2.171"/><use xlink:href="#18" y="4.342"/></svg><svg x="2660"><use xlink:href="#a"/><use xlink:href="#2"/><use xlink:href="#17" y="2.171"/><use xlink:href="#18" y="4.342"/></svg><svg x="2736"><use xlink:href="#a"/><use xlink:href="#2"/><use xlink:href="#19" y="2.171"/><use xlink:href="#20" y="4.342"/></svg><svg x="2812"><use xlink:href="#a"/><use xlink:href="#2"/><use xlink:href="#19" y="2.171"/><use xlink:href="#20" y="4.342"/></svg><svg x="2888"><use xlink:href="#a"/><use xlink:href="#2"/><use xlink:href="#21" y="2.171"/><use xlink:href="#22" y="4.342"/></svg><svg x="2964"><use xlink:href="#a"/><use xlink:href="#2"/><use xlink:href="#21" y="2.171"/><use xlink:href="#22" y="4.342"/></svg><svg x="3040"><use xlink:href="#a"/><use xlink:href="#2"/><use xlink:href="#3" y="2.171"/><use xlink:href="#4" y="4.342"/></svg><svg x="3116"><use xlink:href="#a"/><use xlink:href="#2"/><use xlink:href="#3" y="2.171"/><use xlink:href="#4" y="4.342"/></svg><svg x="3192"><use xlink:href="#a"/><use xlink:href="#2"/><use xlink:href="#5" y="2.171"/><use xlink:href="#6" y="4.342"/></svg><svg x="3268"><use xlink:href="#a"/><use xlink:href="#2"/><use xlink:href="#5" y="2.171"/><use xlink:href="#6" y="4.342"/></svg><svg x="3344"><use xlink:href="#a"/><use xlink:href="#2"/><use xlink:href="#7" y="2.171"/><use xlink:href="#8" y="4.342"/></svg><svg x="3420"><use xlink:href="#a"/><use xlink:href="#2"/><use xlink:href="#7" y="2.171"/><use xlink:href="#8" y="4.342"/></svg><svg x="3496"><use xlink:href="#a"/><use xlink:href="#2"/><use xlink:href="#9" y="2.171"/><use xlink:href="#10" y="4.342"/></svg><svg x="3572"><use xlink:href="#a"/><use xlink:href="#2"/><use xlink:href="#9" y="2.171"/><use xlink:href="#10" y="4.342"/></svg><svg x="3648"><use xlink:href="#a"/><use xlink:href="#2"/><use xlink:href="#11" y="2.171"/><use xlink:href="#12" y="4.342"/></svg><svg x="3724"><use xlink:href="#a"/><use xlink:href="#2"/><use xlink:href="#11" y="2.171"/><use xlink:href="#12" y="4.342"/></svg><svg x="3800"><use xlink:href="#a"/><use xlink:href="#2"/><use xlink:href="#13" y="2.171"/><use xlink:href="#14" y="4.342"/></svg><svg x="3876"><use xlink:href="#a"/><use xlink:href="#2"/><use xlink:href="#13" y="2.171"/><use xlink:href="#14" y="4.342"/></svg><svg x="3952"><use xlink:href="#a"/><use xlink:href="#2"/><use xlink:href="#15" y="2.171"/><use xlink:href="#23" y="4.342"/></svg><svg x="4028"><use xlink:href="#a"/><use xlink:href="#2"/><use xlink:href="#15" y="2.171"/><use xlink:href="#23" y="4.342"/></svg><svg x="4104"><use xlink:href="#a"/><use xlink:href="#2"/><use xlink:href="#17" y="2.171"/><use xlink:href="#23" y="4.342"/></svg><svg x="4180"><use xlink:href="#a"/><use xlink:href="#2"/><use xlink:href="#17" y="2.171"/><use xlink:href="#23" y="4.342"/></svg><svg x="4256"><use xlink:href="#a"/><use xlink:href="#2"/><use xlink:href="#19" y="2.171"/><use xlink:href="#23" y="4.342"/></svg><svg x="4332"><use xlink:href="#a"/><use xlink:href="#2"/><use xlink:href="#19" y="2.171"/><use xlink:href="#23" y="4.342"/></svg><svg x="4408"><use xlink:href="#a"/><use xlink:href="#2"/><use xlink:href="#21" y="2.171"/><use xlink:href="#23" y="4.342"/></svg><svg x="4484"><use xlink:href="#a"/><use xlink:href="#2"/><use xlink:href="#21" y="2.171"/><use xlink:href="#23" y="4.342"/></svg><svg x="4560"><use xlink:href="#a"/><use xlink:href="#2"/><use xlink:href="#3" y="2.171"/><use xlink:href="#23" y="4.342"/></svg><svg x="4636"><use xlink:href="#a"/><use xlink:href="#2"/><use xlink:href="#3" y="2.171"/><use xlink:href="#23" y="4.342"/></svg><svg x="4712"><use xlink:href="#a"/><use xlink:href="#2"/><use xlink:href="#5" y="2.171"/><use xlink:href="#23" y="4.342"/></svg><svg x="4788"><use xlink:href="#a"/><use xlink:href="#2"/><use xlink:href="#5" y="2.171"/><use xlink:href="#23" y="4.342"/></svg><svg x="4864"><use xlink:href="#a"/><use xlink:href="#2"/><use xlink:href="#7" y="2.171"/><use xlink:href="#23" y="4.342"/></svg><svg x="4940"><use xlink:href="#a"/><use xlink:href="#2"/><use xlink:href="#7" y="2.171"/><use xlink:href="#23" y="4.342"/></svg><svg x="5016"><use xlink:href="#a"/><use xlink:href="#2"/><use xlink:href="#9" y="2.171"/><use xlink:href="#23" y="4.342"/></svg><svg x="5092"><use xlink:href="#a"/><use xlink:href="#2"/><use xlink:href="#9" y="2.171"/><use xlink:href="#23" y="4.342"/></svg><svg x="5168"><use xlink:href="#a"/><use xlink:href="#2"/><use xlink:href="#11" y="2.171"/><use xlink:href="#23" y="4.342"/></svg><svg x="5244"><use xlink:href="#a"/><use xlink:href="#2"/><use xlink:href="#11" y="2.171"/><use xlink:href="#23" y="4.342"/></svg><svg x="5320"><use xlink:href="#a"/><use xlink:href="#2"/><use xlink:href="#13" y="2.171"/><use xlink:href="#23" y="4.342"/></svg><svg x="5396"><use xlink:href="#a"/><use xlink:href="#2"/><use xlink:href="#13" y="2.171"/><use xlink:href="#23" y="4.342"/></svg><svg x="5472"><use xlink:href="#a"/><use xlink:href="#2"/><use xlink:href="#15" y="2.171"/><use xlink:href="#23" y="4.342"/></svg><svg x="5548"><use xlink:href="#a"/><use xlink:href="#2"/><use xlink:href="#15" y="2.171"/><use xlink:href="#23" y="4.342"/></svg><svg x="5624"><use xlink:href="#a"/><use xlink:href="#2"/><use xlink:href="#24" y="2.171"/><use xlink:href="#23" y="4.342"/></svg><svg x="5700"><use xlink:href="#a"/><use xlink:href="#b" x="-.004" y="6.488"/><use xlink:href="#2"/><use xlink:href="#24" y="2.171"/><use xlink:href="#23" y="4.342"/></svg><svg x="5776"><use xlink:href="#a"/><use xlink:href="#b" x="-.004" y="6.488"/><use xlink:href="#2"/><use xlink:href="#24" y="2.171"/><use xlink:href="#23" y="4.342"/></svg><svg x="5852"><use xlink:href="#a"/><use xlink:href="#b" x="-.004" y="6.488"/><use xlink:href="#2"/><use xlink:href="#24" y="2.171"/><use xlink:href="#23" y="4.342"/></svg><svg x="5928"><use xlink:href="#a"/><use xlink:href="#b" x="-.004" y="10.83"/><use xlink:href="#2"/><use xlink:href="#24" y="2.171"/><use xlink:href="#23" y="4.342"/><use xlink:href="#25" y="8.684"/></svg><svg x="6004"><use xlink:href="#a"/><use xlink:href="#b" x="-.004" y="10.83"/><use xlink:href="#2"/><use xlink:href="#24" y="2.171"/><use xlink:href="#23" y="4.342"/><use xlink:href="#25" y="8.684"/></svg><svg x="6080"><use xlink:href="#a"/><use xlink:href="#b" x="-.004" y="10.83"/><use xlink:href="#2"/><use xlink:href="#24" y="2.171"/><use xlink:href="#23" y="4.342"/><use xlink:href="#25" y="8.684"/></svg><svg x="6156"><use xlink:href="#a"/><use xlink:href="#b" x="1.996" y="10.83"/><use xlink:href="#2"/><use xlink:href="#24" y="2.171"/><use xlink:href="#23" y="4.342"/><use xlink:href="#25" y="8.684"/><use xlink:href="#1" y="10.855"/></svg><svg x="6232"><use xlink:href="#a"/><use xlink:href="#b" x="-.004" y="13.001"/><use xlink:href="#2"/><use xlink:href="#24" y="2.171"/><use xlink:href="#23" y="4.342"/><use xlink:href="#25" y="8.684"/><use xlink:href="#1" y="10.855"/></svg><svg x="6308"><use xlink:href="#a"/><use xlink:href="#b" x="-.004" y="13.001"/><use xlink:href="#2"/><use xlink:href="#24" y="2.171"/><use xlink:href="#23" y="4.342"/><use xlink:href="#25" y="8.684"/><use xlink:href="#1" y="10.855"/></svg></svg></g></g></svg></svg>