<svg xmlns="http://www.w3.org/2000/svg" xmlns:xlink="http://www.w3.org/1999/xlink" width="1180" height="233.68"><rect width="1180" height="233.68" rx="5" ry="5" class="a"/><svg y="0%" x="0%"><circle cx="20" cy="20" r="6" fill="#ff5f58"/><circle cx="40" cy="20" r="6" fill="#ffbd2e"/><circle cx="60" cy="20" r="6" fill="#18c132"/></svg><svg height="173.68" viewBox="0 0 114 17.368" width="1140" x="15" xmlns="http://www.w3.org/2000/svg" xmlns:xlink="http://www.w3.org/1999/xlink" y="50"><style>@keyframes n{0%{transform:translateX(0)}2.3%{transform:translateX(-114px)}2.7%{transform:translateX(-228px)}3.2%{transform:translateX(-570px)}17.6%{transform:translateX(-912px)}19.5%{transform:translateX(-1140px)}40.3%{transform:translateX(-1368px)}50.1%{transform:translateX(-1596px)}50.2%{transform:translateX(-1824px)}59.3%{transform:translateX(-1938px)}59.4%{transform:translateX(-2052px)}61.4%{transform:translateX(-2280px)}63.5%{transform:translateX(-2508px)}65.5%{transform:translateX(-2736px)}67.5%{transform:translateX(-2850px)}67.6%{transform:translateX(-2964px)}69.7%{transform:translateX(-3192px)}71.7%{transform:translateX(-3420px)}73.7%{transform:translateX(-3534px)}73.8%{transform:translateX(-3648px)}75.9%{transform:translateX(-3876px)}77.9%{transform:translateX(-3990px)}78%{transform:translateX(-4104px)}80.1%{transform:translateX(-4218px)}80.2%{transform:translateX(-4332px)}82.2%{transform:translateX(-4446px)}82.3%{transform:translateX(-4560px)}84.4%{transform:translateX(-5016px)}84.6%{transform:translateX(-5130px)}85.1%{transform:translateX(-5472px)}to{transform:translateX(-5700px)}}.a{fill:#1c2b34}.f{fill:#1dc121}.g{fill:#686868;font-weight:700}.h{fill:#20c5c6}.i{fill:#c7c329}.j{fill:#fff}.p{fill:#fd6f6b}.q{fill:#555}</style><g font-size="1.67" font-family="Monaco,Consolas,Menlo,'Bitstream Vera Sans Mono','Powerline Symbols',monospace"><defs><symbol id="1"><text y="1.67" class="f">❯</text></symbol><symbol id="2"><text y="1.67" class="f">❯</text><text x="2.004" y="1.67" class="g">latest-version</text><text x="17.034" y="1.67" class="h">loading-screen</text><text x="32.064" y="1.67" class="h">poi</text><text x="36.072" y="1.67" class="h">vuepress@next</text></symbol><symbol id="3"><text x="2.004" y="1.67" class="i">⠙</text><text x="4.008" y="1.67" class="j">loading-screen</text></symbol><symbol id="4"><text x="2.004" y="1.67" class="i">⠙</text><text x="4.008" y="1.67" class="j">poi</text></symbol><symbol id="5"><text x="2.004" y="1.67" class="i">⠙</text><text x="4.008" y="1.67" class="j">vuepress@next</text></symbol><symbol id="6"><text x="2.004" y="1.67" class="i">⠹</text><text x="4.008" y="1.67" class="j">loading-screen</text></symbol><symbol id="7"><text x="2.004" y="1.67" class="i">⠹</text><text x="4.008" y="1.67" class="j">poi</text></symbol><symbol id="8"><text x="2.004" y="1.67" class="i">⠹</text><text x="4.008" y="1.67" class="j">vuepress@next</text></symbol><symbol id="9"><text x="2.004" y="1.67" class="i">⠸</text><text x="4.008" y="1.67" class="j">loading-screen</text></symbol><symbol id="10"><text x="2.004" y="1.67" class="i">⠸</text><text x="4.008" y="1.67" class="j">poi</text></symbol><symbol id="11"><text x="2.004" y="1.67" class="i">⠸</text><text x="4.008" y="1.67" class="j">vuepress@next</text></symbol><symbol id="12"><text x="2.004" y="1.67" class="i">⠼</text><text x="4.008" y="1.67" class="j">loading-screen</text></symbol><symbol id="13"><text x="2.004" y="1.67" class="i">⠼</text><text x="4.008" y="1.67" class="j">poi</text></symbol><symbol id="14"><text x="2.004" y="1.67" class="i">⠼</text><text x="4.008" y="1.67" class="j">vuepress@next</text></symbol><symbol id="15"><text x="2.004" y="1.67" class="i">⠴</text><text x="4.008" y="1.67" class="j">loading-screen</text></symbol><symbol id="16"><text x="2.004" y="1.67" class="i">⠴</text><text x="4.008" y="1.67" class="j">poi</text></symbol><symbol id="17"><text x="2.004" y="1.67" class="i">⠴</text><text x="4.008" y="1.67" class="j">vuepress@next</text></symbol><symbol id="18"><text x="2.004" y="1.67" class="i">⠦</text><text x="4.008" y="1.67" class="j">loading-screen</text></symbol><symbol id="19"><text x="2.004" y="1.67" class="i">⠦</text><text x="4.008" y="1.67" class="j">poi</text></symbol><symbol id="20"><text x="2.004" y="1.67" class="i">⠦</text><text x="4.008" y="1.67" class="j">vuepress@next</text></symbol><symbol id="21"><text x="2.004" y="1.67" class="i">⠧</text><text x="4.008" y="1.67" class="j">loading-screen</text></symbol><symbol id="22"><text x="2.004" y="1.67" class="i">⠧</text><text x="4.008" y="1.67" class="j">poi</text></symbol><symbol id="23"><text x="2.004" y="1.67" class="i">⠧</text><text x="4.008" y="1.67" class="j">vuepress@next</text></symbol><symbol id="24"><text x="2.004" y="1.67" class="f">✔</text><text x="4.008" y="1.67" class="j">loading-screen</text><text x="19.038" y="1.67" class="f">1.3.0</text></symbol><symbol id="25"><text x="2.004" y="1.67" class="i">⠇</text><text x="4.008" y="1.67" class="j">poi</text></symbol><symbol id="26"><text x="2.004" y="1.67" class="i">⠇</text><text x="4.008" y="1.67" class="j">vuepress@next</text></symbol><symbol id="27"><text x="2.004" y="1.67" class="i">⠏</text><text x="4.008" y="1.67" class="j">poi</text></symbol><symbol id="28"><text x="2.004" y="1.67" class="i">⠏</text><text x="4.008" y="1.67" class="j">vuepress@next</text></symbol><symbol id="29"><text x="2.004" y="1.67" class="i">⠋</text><text x="4.008" y="1.67" class="j">poi</text></symbol><symbol id="30"><text x="2.004" y="1.67" class="i">⠋</text><text x="4.008" y="1.67" class="j">vuepress@next</text></symbol><symbol id="31"><text x="2.004" y="1.67" class="f">✔</text><text x="4.008" y="1.67" class="j">vuepress@next</text><text x="19.038" y="1.67" class="f">1.0.0-rc.1</text></symbol><symbol id="32"><text x="2.004" y="1.67" class="f">✔</text><text x="4.008" y="1.67" class="j">poi</text><text x="19.038" y="1.67" class="f">12.6.10</text></symbol><symbol id="33"><text y="1.67" fill="#0a2fc4">~</text><text x="2.004" y="1.67" class="i">0.00002d</text><text x="11.022" y="1.67" class="i">0.000472h</text><text x="21.042" y="1.67" class="i">0.028333m</text></symbol><symbol id="a"><path fill="transparent" d="M0 0h114v9H0z"/></symbol><symbol id="b"><path fill="#f81ce5" d="M0 0h1.102v2.171H0z"/></symbol></defs><path class="a" d="M0 0h114v17.368H0z"/><g style="animation-duration:4.938719s;animation-iteration-count:infinite;animation-name:n;animation-timing-function:steps(1,end)"><svg width="5814"><svg><use xlink:href="#a"/><use xlink:href="#b" x="-.004"/></svg><svg x="114"><use xlink:href="#a"/><use xlink:href="#b" x="-.004"/></svg><svg x="228"><use xlink:href="#a"/><use xlink:href="#b" x="-.004"/></svg><svg x="342"><use xlink:href="#a"/><use xlink:href="#b" x="-.004"/></svg><svg x="456"><use xlink:href="#a"/><use xlink:href="#b" x="-.004"/></svg><svg x="570"><use xlink:href="#a"/><use xlink:href="#b" x="1.996"/><use xlink:href="#1"/></svg><svg x="684"><use xlink:href="#a"/><use xlink:href="#b" x="2.996"/><text y="1.67" class="f">❯</text><text x="2.004" y="1.67" class="j">l</text></svg><svg x="798"><use xlink:href="#a"/><use xlink:href="#b" x="2.996"/><text y="1.67" class="f">❯</text><text x="2.004" y="1.67" class="p">l</text></svg><svg x="912"><use xlink:href="#a"/><use xlink:href="#b" x="2.996"/><text y="1.67" class="f">❯</text><text x="2.004" y="1.67" class="p">l</text><text x="3.006" y="1.67" class="q">atest-version</text><text x="17.034" y="1.67" class="q">loading-screen</text><text x="32.064" y="1.67" class="q">poi</text><text x="36.072" y="1.67" class="q">vuepress@next</text></svg><svg x="1026"><use xlink:href="#a"/><use xlink:href="#b" x="3.996"/><text y="1.67" class="f">❯</text><text x="2.004" y="1.67" class="p">la</text><text x="4.008" y="1.67" class="q">test-version</text><text x="17.034" y="1.67" class="q">loading-screen</text><text x="32.064" y="1.67" class="q">poi</text><text x="36.072" y="1.67" class="q">vuepress@next</text></svg><svg x="1140"><use xlink:href="#a"/><use xlink:href="#b" x="3.996"/><text y="1.67" class="f">❯</text><text x="2.004" y="1.67" class="g">la</text><text x="4.008" y="1.67" class="q">test-version</text><text x="17.034" y="1.67" class="q">loading-screen</text><text x="32.064" y="1.67" class="q">poi</text><text x="36.072" y="1.67" class="q">vuepress@next</text></svg><svg x="1254"><use xlink:href="#a"/><use xlink:href="#b" x="48.996"/><text y="1.67" class="f">❯</text><text x="2.004" y="1.67" class="g">latest-version</text><text x="17.034" y="1.67" class="g">loading-screen</text><text x="32.064" y="1.67" class="g">poi</text><text x="36.072" y="1.67" class="g">vuepress@next</text></svg><svg x="1368"><use xlink:href="#a"/><use xlink:href="#b" x="48.996"/><use xlink:href="#2"/></svg><svg x="1482"><use xlink:href="#a"/><use xlink:href="#b" x="-.004" y="2.146"/><use xlink:href="#2"/></svg><svg x="1596"><use xlink:href="#a"/><use xlink:href="#b" x="-.004" y="2.146"/><use xlink:href="#2"/></svg><svg x="1710"><use xlink:href="#a"/><use xlink:href="#b" x="-.004" y="2.146"/><use xlink:href="#2"/></svg><svg x="1824"><use xlink:href="#a"/><use xlink:href="#b" x="-.004" y="2.146"/><use xlink:href="#2"/></svg><svg x="1938"><use xlink:href="#a"/><use xlink:href="#2"/></svg><svg x="2052"><use xlink:href="#a"/><use xlink:href="#2"/><use xlink:href="#3" y="2.171"/><use xlink:href="#4" y="4.342"/><use xlink:href="#5" y="6.513"/></svg><svg x="2166"><use xlink:href="#a"/><use xlink:href="#2"/><use xlink:href="#3" y="2.171"/><use xlink:href="#4" y="4.342"/><use xlink:href="#5" y="6.513"/></svg><svg x="2280"><use xlink:href="#a"/><use xlink:href="#2"/><use xlink:href="#6" y="2.171"/><use xlink:href="#7" y="4.342"/><use xlink:href="#8" y="6.513"/></svg><svg x="2394"><use xlink:href="#a"/><use xlink:href="#2"/><use xlink:href="#6" y="2.171"/><use xlink:href="#7" y="4.342"/><use xlink:href="#8" y="6.513"/></svg><svg x="2508"><use xlink:href="#a"/><use xlink:href="#2"/><use xlink:href="#9" y="2.171"/><use xlink:href="#10" y="4.342"/><use xlink:href="#11" y="6.513"/></svg><svg x="2622"><use xlink:href="#a"/><use xlink:href="#2"/><use xlink:href="#9" y="2.171"/><use xlink:href="#10" y="4.342"/><use xlink:href="#11" y="6.513"/></svg><svg x="2736"><use xlink:href="#a"/><use xlink:href="#2"/><use xlink:href="#12" y="2.171"/><use xlink:href="#13" y="4.342"/><use xlink:href="#14" y="6.513"/></svg><svg x="2850"><use xlink:href="#a"/><use xlink:href="#2"/><use xlink:href="#12" y="2.171"/><use xlink:href="#13" y="4.342"/><use xlink:href="#14" y="6.513"/></svg><svg x="2964"><use xlink:href="#a"/><use xlink:href="#2"/><use xlink:href="#15" y="2.171"/><use xlink:href="#16" y="4.342"/><use xlink:href="#17" y="6.513"/></svg><svg x="3078"><use xlink:href="#a"/><use xlink:href="#2"/><use xlink:href="#15" y="2.171"/><use xlink:href="#16" y="4.342"/><use xlink:href="#17" y="6.513"/></svg><svg x="3192"><use xlink:href="#a"/><use xlink:href="#2"/><use xlink:href="#18" y="2.171"/><use xlink:href="#19" y="4.342"/><use xlink:href="#20" y="6.513"/></svg><svg x="3306"><use xlink:href="#a"/><use xlink:href="#2"/><use xlink:href="#18" y="2.171"/><use xlink:href="#19" y="4.342"/><use xlink:href="#20" y="6.513"/></svg><svg x="3420"><use xlink:href="#a"/><use xlink:href="#2"/><use xlink:href="#21" y="2.171"/><use xlink:href="#22" y="4.342"/><use xlink:href="#23" y="6.513"/></svg><svg x="3534"><use xlink:href="#a"/><use xlink:href="#2"/><use xlink:href="#21" y="2.171"/><use xlink:href="#22" y="4.342"/><use xlink:href="#23" y="6.513"/></svg><svg x="3648"><use xlink:href="#a"/><use xlink:href="#2"/><use xlink:href="#24" y="2.171"/><use xlink:href="#25" y="4.342"/><use xlink:href="#26" y="6.513"/></svg><svg x="3762"><use xlink:href="#a"/><use xlink:href="#2"/><use xlink:href="#24" y="2.171"/><use xlink:href="#25" y="4.342"/><use xlink:href="#26" y="6.513"/></svg><svg x="3876"><use xlink:href="#a"/><use xlink:href="#2"/><use xlink:href="#24" y="2.171"/><use xlink:href="#27" y="4.342"/><use xlink:href="#28" y="6.513"/></svg><svg x="3990"><use xlink:href="#a"/><use xlink:href="#2"/><use xlink:href="#24" y="2.171"/><use xlink:href="#27" y="4.342"/><use xlink:href="#28" y="6.513"/></svg><svg x="4104"><use xlink:href="#a"/><use xlink:href="#2"/><use xlink:href="#24" y="2.171"/><use xlink:href="#29" y="4.342"/><use xlink:href="#30" y="6.513"/></svg><svg x="4218"><use xlink:href="#a"/><use xlink:href="#2"/><use xlink:href="#24" y="2.171"/><use xlink:href="#29" y="4.342"/><use xlink:href="#30" y="6.513"/></svg><svg x="4332"><use xlink:href="#a"/><use xlink:href="#2"/><use xlink:href="#24" y="2.171"/><use xlink:href="#4" y="4.342"/><use xlink:href="#31" y="6.513"/></svg><svg x="4446"><use xlink:href="#a"/><use xlink:href="#2"/><use xlink:href="#24" y="2.171"/><use xlink:href="#4" y="4.342"/><use xlink:href="#31" y="6.513"/></svg><svg x="4560"><use xlink:href="#a"/><use xlink:href="#2"/><use xlink:href="#24" y="2.171"/><use xlink:href="#7" y="4.342"/><use xlink:href="#31" y="6.513"/></svg><svg x="4674"><use xlink:href="#a"/><use xlink:href="#2"/><use xlink:href="#24" y="2.171"/><use xlink:href="#7" y="4.342"/><use xlink:href="#31" y="6.513"/></svg><svg x="4788"><use xlink:href="#a"/><use xlink:href="#2"/><use xlink:href="#24" y="2.171"/><use xlink:href="#32" y="4.342"/><use xlink:href="#31" y="6.513"/></svg><svg x="4902"><use xlink:href="#a"/><use xlink:href="#b" x="-.004" y="8.659"/><use xlink:href="#2"/><use xlink:href="#24" y="2.171"/><use xlink:href="#32" y="4.342"/><use xlink:href="#31" y="6.513"/></svg><svg x="5016"><use xlink:href="#a"/><use xlink:href="#b" x="-.004" y="8.659"/><use xlink:href="#2"/><use xlink:href="#24" y="2.171"/><use xlink:href="#32" y="4.342"/><use xlink:href="#31" y="6.513"/></svg><svg x="5130"><use xlink:href="#a"/><use xlink:href="#b" x="-.004" y="8.659"/><use xlink:href="#2"/><use xlink:href="#24" y="2.171"/><use xlink:href="#32" y="4.342"/><use xlink:href="#31" y="6.513"/></svg><svg x="5244"><use xlink:href="#a"/><use xlink:href="#b" x="-.004" y="13.001"/><use xlink:href="#2"/><use xlink:href="#24" y="2.171"/><use xlink:href="#32" y="4.342"/><use xlink:href="#31" y="6.513"/><use xlink:href="#33" y="10.855"/></svg><svg x="5358"><use xlink:href="#a"/><use xlink:href="#b" x="-.004" y="13.001"/><use xlink:href="#2"/><use xlink:href="#24" y="2.171"/><use xlink:href="#32" y="4.342"/><use xlink:href="#31" y="6.513"/><use xlink:href="#33" y="10.855"/></svg><svg x="5472"><use xlink:href="#a"/><use xlink:href="#b" x="1.996" y="13.001"/><use xlink:href="#2"/><use xlink:href="#24" y="2.171"/><use xlink:href="#32" y="4.342"/><use xlink:href="#31" y="6.513"/><use xlink:href="#33" y="10.855"/><use xlink:href="#1" y="13.026"/></svg><svg x="5586"><use xlink:href="#a"/><use xlink:href="#b" x="-.004" y="15.172"/><use xlink:href="#2"/><use xlink:href="#24" y="2.171"/><use xlink:href="#32" y="4.342"/><use xlink:href="#31" y="6.513"/><use xlink:href="#33" y="10.855"/><use xlink:href="#1" y="13.026"/></svg><svg x="5700"><use xlink:href="#a"/><use xlink:href="#b" x="-.004" y="15.172"/><use xlink:href="#2"/><use xlink:href="#24" y="2.171"/><use xlink:href="#32" y="4.342"/><use xlink:href="#31" y="6.513"/><use xlink:href="#33" y="10.855"/><use xlink:href="#1" y="13.026"/></svg></svg></g></g></svg></svg>